PathFileType	4	(X/Y/Z)	C:/Users/opensim2020/Desktop/walking_exp_matlab/subject01_walking07_straight_04.trc																																																																																																																															
DataRate	CameraRate	NumFrames	NumMarkers	Units	OrigDataRate	OrigDataStartFrame	OrigNumFrames																																																																																																																											
100	100	4	43	mm	100	2878	176																																																																																																																											
Frame#	Time	LFHD			RFHD			LBHD			RBHD			C7			T10			CLAV			STRN			RBAK			LSHO			LUPA			LELB			LFRM			LWRA			LWRB			LFIN			RSHO			RUPA			RELB			RFRM			RWRA			RWRB			RFIN			LASI			RASI			LPSI			RPSI			LTHI			LKNE			LTIB			LANK			LHEE			LTOE			RTHI			RKNE			RTIB			RANK			RHEE			RTOE			*39			*40			*41			*42		
		X1	Y1	Z1	X2	Y2	Z2	X3	Y3	Z3	X4	Y4	Z4	X5	Y5	Z5	X6	Y6	Z6	X7	Y7	Z7	X8	Y8	Z8	X9	Y9	Z9	X10	Y10	Z10	X11	Y11	Z11	X12	Y12	Z12	X13	Y13	Z13	X14	Y14	Z14	X15	Y15	Z15	X16	Y16	Z16	X17	Y17	Z17	X18	Y18	Z18	X19	Y19	Z19	X20	Y20	Z20	X21	Y21	Z21	X22	Y22	Z22	X23	Y23	Z23	X24	Y24	Z24	X25	Y25	Z25	X26	Y26	Z26	X27	Y27	Z27	X28	Y28	Z28	X29	Y29	Z29	X30	Y30	Z30	X31	Y31	Z31	X32	Y32	Z32	X33	Y33	Z33	X34	Y34	Z34	X35	Y35	Z35	X36	Y36	Z36	X37	Y37	Z37	X38	Y38	Z38	X39	Y39	Z39	X40	Y40	Z40	X41	Y41	Z41	X42	Y42	Z42	X43	Y43	Z43
																																																																																																																																		
111	1.1	207.89288	1660.43079	962.59857	256.74506	1668.24146	1066.86096	95.47874	1628.40173	1009.46808	144.23068	1637.14758	1120.9187	56.3282	1430.46252	1048.05994	20.33952	1137.19897	1062.93884	200.40691	1362.46326	1045.47937	242.86397	1208.22949	1045.23425	2.91741	1238.72986	1131.06909	138.74988	1387.22498	885.31122	127.03683	1199.49768	802.15485	126.64481	1049.11755	801.82227	174.51521	945.82434	778.31403	261.07944	837.02655	800.43799	208.76361	828.03479	772.23102	263.49881	763.88007	764.99207	141.90663	1395.96936	1197.92957	85.81462	1198.80029	1304.0885	87.1431	1073.90967	1309.91724	116.16219	958.09155	1344.52271	198.34277	841.84924	1329.87695	154.67868	843.17908	1369.27759	192.40942	764.67932	1367.03296	196.92772	935.60156	955.95514	193.38446	932.58417	1174.14026	9.89569	942.04376	1008.00421	10.6967	938.84552	1152.89722	189.64418	603.909	903.5498	191.25075	469.07886	923.01135	138.3391	285.2796	914.73566	103.98553	70.8121	970.57739	58.34126	41.46119	1023.10565	250.22205	33.88137	963.10449	204.83427	601.22626	1240.28052	234.81024	448.11459	1228.70569	86.46056	356.76315	1225.88342	-65.73185	219.82066	1180.91321	-118.60607	223.41525	1121.81885	-15.34555	86.26491	1198.21436	241.1331	1702.14697	1045.99133	-1973.10779	1023.75507	3101.97095	-2012.52271	1021.88831	3140.69263	NaN	NaN	NaN
112	1.11	217.51064	1660.66797	962.49481	266.25873	1668.17712	1066.81543	104.96773	1628.93616	1009.1972	153.59006	1637.3573	1120.73291	65.22891	1430.82385	1047.13586	28.7103	1137.47095	1061.63733	209.19281	1362.75403	1044.97717	251.50314	1208.40308	1044.50635	11.31137	1239.08313	1129.7395	147.99301	1387.88257	884.61707	137.64568	1200.52124	800.79431	139.4798	1049.91418	799.70251	190.18735	947.85284	776.07098	279.75983	841.61371	797.83087	227.57858	831.16595	769.71216	284.2135	768.7074	762.16638	150.24373	1396.08521	1197.29358	93.13652	1198.63721	1302.41089	93.76426	1073.92322	1307.83142	120.80128	957.88953	1342.56299	200.52213	839.76422	1328.15991	156.79541	842.28455	1367.56848	192.40262	762.49164	1365.04321	205.05664	935.83203	954.44489	201.75482	933.32733	1172.57642	18.2152	942.61926	1007.41589	19.42085	939.54218	1152.47058	194.51617	603.45258	903.02924	194.36137	468.7468	922.45117	140.40994	285.13943	914.4032	104.34882	70.78255	970.71143	58.57135	41.63139	1023.33978	250.14381	33.52809	963.13513	218.9926	603.39252	1239.04004	251.7254	451.15582	1227.69568	105.55972	355.94	1224.44714	-43.14412	214.94649	1179.49292	-97.01109	217.00542	1121.1991	13.46791	84.24278	1195.72046	250.83984	1702.13782	1046.00854	-1973.13159	1023.55884	3101.81934	-2012.60938	1022.00226	3140.73511	NaN	NaN	NaN
113	1.12	227.03622	1660.95801	962.41351	275.77496	1668.09778	1066.83496	114.37884	1629.44568	1008.90503	162.88057	1637.46118	1120.47827	74.22033	1431.11768	1045.91687	37.28971	1137.79114	1060.38196	218.01955	1362.89954	1044.39001	260.13702	1208.56201	1043.87231	19.74133	1239.3938	1128.48694	157.38153	1388.48584	883.98163	148.12593	1201.46997	799.50201	152.16853	1050.72253	797.68213	205.84579	950.01587	773.9624	298.31604	846.45618	795.2995	246.37801	834.54016	767.96381	304.81104	773.8349	759.57196	158.58896	1396.11365	1196.67151	100.23073	1198.4093	1300.64258	100.47847	1073.98779	1305.82996	125.33132	957.56805	1340.54822	202.65912	837.82843	1326.39941	159.08774	841.3609	1365.71631	192.46173	760.50647	1363.06409	213.188	935.94476	953.04187	210.06833	934.02588	1171.0061	26.38299	942.8277	1006.82483	27.92655	940.13654	1152.08728	199.3985	602.88831	902.51459	197.83887	468.04309	921.97681	141.92268	285.0289	914.19458	104.56271	70.88715	970.78644	58.97874	41.78952	1023.58618	250.314	33.40743	963.13763	233.11061	605.39203	1238.42944	268.14505	453.59509	1226.18079	124.83537	354.35565	1223.32947	-20.00342	209.36111	1178.27625	-74.68816	209.26447	1120.56067	42.7146	81.3718	1193.18335	260.55807	1702.1615	1046.21643	-1973.00684	1023.75824	3102.03467	-2012.52954	1021.94904	3140.5957	NaN	NaN	NaN
114	1.13	236.60524	1661.07043	962.48071	285.17023	1668.0116	1066.94336	123.83802	1629.87598	1009.11078	172.16087	1637.53015	1120.41321	83.13342	1431.36841	1045.48755	45.94152	1138.07629	1059.16833	226.87021	1363.06824	1043.9668	268.83624	1208.54199	1043.30505	28.28244	1239.65247	1127.24231	166.78404	1388.99561	883.42334	158.63043	1202.35889	798.29919	164.76498	1051.51672	795.66364	221.2538	952.14581	771.93115	316.58563	851.41077	792.94397	264.98257	837.78943	765.79108	325.08072	779.10388	757.03027	166.95871	1396.0332	1196.05249	107.19318	1198.21655	1299.15552	107.09804	1073.89526	1303.80017	129.72079	957.27661	1338.54858	204.84418	835.97998	1324.75098	161.36775	840.5802	1364.08032	192.64412	758.74475	1361.24487	221.29582	935.83868	951.67566	218.56244	934.80884	1169.48499	34.67762	943.08569	1006.26166	36.58333	940.48059	1151.61243	204.10338	602.27881	902.04181	200.81458	467.42154	921.42639	143.19449	284.95862	913.92487	104.79017	71.03133	970.96686	59.11105	42.10059	1023.71814	250.65305	33.62442	963.10315	246.18829	607.57355	1237.25037	284.49167	456.13965	1224.72046	144.45929	351.9657	1222.49792	3.81861	202.80348	1177.01672	-51.5736	200.36609	1119.66956	72.7346	78.33801	1191.28174	270.27353	1702.29614	1046.43591	-1973.12463	1023.46143	3101.86475	-2012.4823	1022.02155	3140.65479	NaN	NaN	NaN
